<?xml version="1.0"?>
<svg xmlns="http://www.w3.org/2000/svg" id="Capa_1" enable-background="new 0 0 512 512" height="512px" viewBox="0 0 512 512" width="512px"><g><g><path d="m213.482 199.733v6.687c0 4.143 3.358 7.5 7.5 7.5s7.5-3.357 7.5-7.5v-6.687c0-4.143-3.358-7.5-7.5-7.5s-7.5 3.358-7.5 7.5z" data-original="#000000" class="active-path" data-old_color="#000000" fill="#FFFFFF"/><path d="m283.517 199.733v6.687c0 4.143 3.357 7.5 7.5 7.5s7.5-3.357 7.5-7.5v-6.687c0-4.143-3.357-7.5-7.5-7.5s-7.5 3.358-7.5 7.5z" data-original="#000000" class="active-path" data-old_color="#000000" fill="#FFFFFF"/><path d="m303.484 375.324h33.811c4.143 0 7.5-3.357 7.5-7.5s-3.357-7.5-7.5-7.5h-33.811c-4.143 0-7.5 3.357-7.5 7.5s3.358 7.5 7.5 7.5z" data-original="#000000" class="active-path" data-old_color="#000000" fill="#FFFFFF"/><path d="m268.314 235.186c-8.516 5.838-16.113 5.838-24.629 0-3.416-2.342-8.084-1.471-10.427 1.944-2.342 3.417-1.471 8.085 1.945 10.427 6.803 4.664 13.799 6.995 20.796 6.995s13.994-2.331 20.797-6.995c3.416-2.342 4.287-7.01 1.944-10.427-2.339-3.415-7.007-4.287-10.426-1.944z" data-original="#000000" class="active-path" data-old_color="#000000" fill="#FFFFFF"/><path d="m272.555 93.52c4.143 0 7.5-3.357 7.5-7.5s-3.357-7.5-7.5-7.5h-33.111c-4.142 0-7.5 3.357-7.5 7.5s3.358 7.5 7.5 7.5z" data-original="#000000" class="active-path" data-old_color="#000000" fill="#FFFFFF"/><path d="m318.701 275.488c5.526-5.503 10.37-11.771 14.346-18.701 2.062-3.593.82-8.177-2.772-10.237-3.593-2.063-8.177-.82-10.237 2.772-13.146 22.91-37.683 37.143-64.038 37.143-40.691 0-73.795-33.104-73.795-73.796v-52.598h147.59v52.598c0 3.525-.264 7.126-.782 10.701-.596 4.1 2.245 7.905 6.344 8.5 4.1.604 7.904-2.245 8.5-6.344.623-4.287.938-8.613.938-12.857v-52.598h12.31c9.551 0 17.32-7.771 17.32-17.321v-14.429c0-9.551-7.77-17.321-17.32-17.321h-7.317v-2.556c0-34.732-18.977-65.114-47.106-81.323l.642-1.05c2.162-3.533 1.05-8.15-2.483-10.312-3.531-2.161-8.149-1.051-10.312 2.483l-1.486 2.43c-8.049-3.04-16.621-5.006-25.542-5.715v-7.457c0-4.143-3.357-7.5-7.5-7.5-4.142 0-7.5 3.357-7.5 7.5v7.461c-8.783.709-17.375 2.657-25.53 5.73l-1.498-2.448c-2.162-3.533-6.777-4.648-10.312-2.483-3.533 2.161-4.646 6.778-2.484 10.312l.643 1.052c-8.393 4.813-16.072 10.933-22.699 18.215-2.788 3.063-2.564 7.807.499 10.595 3.062 2.786 7.806 2.563 10.595-.499 5.686-6.247 12.298-11.47 19.525-15.552 1.452 1.714 3.561 2.653 5.72 2.653 1.334 0 2.685-.355 3.907-1.104 2.63-1.609 3.915-4.578 3.511-7.448 5.839-2.013 11.917-3.352 18.124-3.949v4.667c0 4.143 3.358 7.5 7.5 7.5 4.143 0 7.5-3.357 7.5-7.5v-4.678c6.287.597 12.354 1.944 18.126 3.936-.415 2.878.871 5.859 3.509 7.472 1.222.748 2.572 1.104 3.907 1.104 2.155 0 4.26-.936 5.712-2.646 23.877 13.552 40.033 39.195 40.033 68.556v2.554h-157.577v-2.556c0-10.303 1.974-20.345 5.867-29.846 1.571-3.833-.263-8.213-4.096-9.784-3.835-1.569-8.213.264-9.784 4.097-4.636 11.315-6.987 23.271-6.987 35.533v2.556h-7.316c-9.551 0-17.321 7.771-17.321 17.321v14.429c0 9.551 7.77 17.321 17.321 17.321h12.309v52.598c0 24.511 9.984 46.735 26.098 62.818-33.75 6.979-59.198 36.931-59.198 72.718v145.762c0 9.943 8.089 18.033 18.033 18.033h29.853c4.142 0 7.5-3.357 7.5-7.5s-3.358-7.5-7.5-7.5h-29.853c-1.672 0-3.033-1.36-3.033-3.033v-36.41h99.395v39.443h-36.524c-4.142 0-7.5 3.357-7.5 7.5s3.358 7.5 7.5 7.5h147.887c9.943 0 18.033-8.09 18.033-18.033 0-14.735 0-127.951 0-145.762 0-35.786-25.446-65.737-59.195-72.717zm-166.126-132.738v-14.429c0-1.28 1.041-2.321 2.321-2.321h202.208c1.279 0 2.32 1.041 2.32 2.321v14.429c0 1.28-1.041 2.321-2.32 2.321-9.218 0-187.046 0-202.208 0-1.28 0-2.321-1.041-2.321-2.321zm151.066 146.2c32.673 0 59.255 26.582 59.255 59.255v67.141h-99.396v-21.424l25.479-98.862c4.273-1.717 8.404-3.76 12.355-6.11zm59.255 153.607h-99.396v-12.211h99.396zm-90.665-142.612-16.231 62.978-16.223-62.948c10.738 1.99 21.657 1.993 32.454-.03zm-63.872-10.995h2.239c3.958 2.365 8.114 4.431 12.437 6.166l25.465 98.809v21.42h-99.396v-67.141c0-32.672 26.581-59.254 59.255-59.254zm-59.255 141.396h99.396v12.211h-99.396zm210.759 66.654h-96.362v-39.443h99.396v36.41c-.001 1.673-1.361 3.033-3.034 3.033z" data-original="#000000" class="active-path" data-old_color="#000000" fill="#FFFFFF"/></g></g> </svg>
